<mxfile host="app.diagrams.net" modified="2023-02-13T06:04:45.271Z" agent="5.0 (Windows NT 10.0; Win64; x64) AppleWebKit/537.36 (KHTML, like Gecko) Chrome/110.0.0.0 Safari/537.36 Edg/110.0.1587.41" etag="RDiJSBq12esKzOMDgVQ2" version="20.8.20" type="github">
  <diagram name="Page-1" id="b98fa263-6416-c6ec-5b7d-78bf54ef71d0">
    <mxGraphModel dx="3500" dy="1910" grid="1" gridSize="10" guides="1" tooltips="1" connect="1" arrows="1" fold="1" page="1" pageScale="1.5" pageWidth="1169" pageHeight="826" background="none" math="0" shadow="0">
      <root>
        <mxCell id="0" style=";html=1;" />
        <mxCell id="1" style=";html=1;" parent="0" />
        <mxCell id="303ed1de8c2c98b4-5" value="&lt;font face=&quot;Times New Roman&quot; style=&quot;font-size: 25px;&quot;&gt;&lt;b&gt;ADMIN&lt;/b&gt;&lt;/font&gt;" style="whiteSpace=wrap;html=1;rounded=1;shadow=1;strokeWidth=1;fontSize=16;align=center;fillColor=#7ECAFC;strokeColor=#6c8ebf;gradientColor=#3BEBFF;" parent="1" vertex="1">
          <mxGeometry x="760" y="240" width="240" height="80" as="geometry" />
        </mxCell>
        <mxCell id="303ed1de8c2c98b4-6" value="&lt;font face=&quot;Times New Roman&quot; style=&quot;font-size: 25px;&quot;&gt;&lt;b&gt;USER&lt;/b&gt;&lt;/font&gt;" style="whiteSpace=wrap;html=1;rounded=1;shadow=1;strokeWidth=1;fontSize=16;align=center;fillColor=#14FC43;strokeColor=#6c8ebf;gradientColor=#6AFF59;" parent="1" vertex="1">
          <mxGeometry x="1200" y="240" width="240" height="80" as="geometry" />
        </mxCell>
        <mxCell id="303ed1de8c2c98b4-7" value="&lt;font face=&quot;Times New Roman&quot; style=&quot;font-size: 25px;&quot;&gt;&lt;b&gt;PRODUCT&lt;/b&gt;&lt;/font&gt;" style="whiteSpace=wrap;html=1;rounded=1;shadow=1;strokeWidth=1;fontSize=16;align=center;fillColor=#A0FC17;strokeColor=#6c8ebf;gradientColor=#C1FF57;" parent="1" vertex="1">
          <mxGeometry x="320" y="240" width="240" height="80" as="geometry" />
        </mxCell>
        <mxCell id="303ed1de8c2c98b4-15" value="본인정보 수정" style="whiteSpace=wrap;html=1;rounded=1;shadow=1;strokeWidth=1;fontSize=20;align=center;fillColor=#d5e8d4;strokeColor=#82b366;fontStyle=1" parent="1" vertex="1">
          <mxGeometry x="1260" y="880" width="180" height="80" as="geometry" />
        </mxCell>
        <mxCell id="303ed1de8c2c98b4-69" value="&lt;table style=&quot;border-color: var(--border-color); font-size: 20px; text-align: left;&quot; class=&quot;simple-table&quot; id=&quot;641d19b6-5685-4ff1-a8e2-494bd2d53a1b&quot;&gt;&lt;tbody style=&quot;border-color: var(--border-color); font-size: 20px;&quot;&gt;&lt;tr style=&quot;border-color: var(--border-color); font-size: 20px;&quot; id=&quot;c70bd605-bbbd-4b36-904c-4488820a4ed9&quot;&gt;&lt;td style=&quot;border-color: var(--border-color); font-size: 20px;&quot; class=&quot;&quot; id=&quot;PJ:h&quot;&gt;회원삭제&lt;/td&gt;&lt;/tr&gt;&lt;tr style=&quot;border-color: var(--border-color); font-size: 20px;&quot; id=&quot;0e1357af-12ed-46eb-b10c-167027bdc153&quot;&gt;&lt;/tr&gt;&lt;/tbody&gt;&lt;/table&gt;" style="whiteSpace=wrap;html=1;rounded=1;shadow=1;strokeWidth=1;fontSize=20;align=center;fillColor=#dae8fc;strokeColor=#6c8ebf;fontStyle=1" parent="1" vertex="1">
          <mxGeometry x="820" y="760" width="180" height="80" as="geometry" />
        </mxCell>
        <mxCell id="_xkjYDFvgd3lGUrraLuJ-22" value="" style="edgeStyle=orthogonalEdgeStyle;rounded=0;orthogonalLoop=1;jettySize=auto;html=1;fontFamily=Times New Roman;fontSize=20;" parent="1" source="_xkjYDFvgd3lGUrraLuJ-3" target="303ed1de8c2c98b4-5" edge="1">
          <mxGeometry relative="1" as="geometry" />
        </mxCell>
        <mxCell id="_xkjYDFvgd3lGUrraLuJ-23" style="edgeStyle=orthogonalEdgeStyle;rounded=0;orthogonalLoop=1;jettySize=auto;html=1;entryX=0.5;entryY=0;entryDx=0;entryDy=0;fontFamily=Times New Roman;fontSize=20;" parent="1" source="_xkjYDFvgd3lGUrraLuJ-3" target="303ed1de8c2c98b4-7" edge="1">
          <mxGeometry relative="1" as="geometry">
            <Array as="points">
              <mxPoint x="880" y="200" />
              <mxPoint x="440" y="200" />
            </Array>
          </mxGeometry>
        </mxCell>
        <mxCell id="_xkjYDFvgd3lGUrraLuJ-24" style="edgeStyle=orthogonalEdgeStyle;rounded=0;orthogonalLoop=1;jettySize=auto;html=1;fontFamily=Times New Roman;fontSize=20;" parent="1" source="_xkjYDFvgd3lGUrraLuJ-3" target="303ed1de8c2c98b4-6" edge="1">
          <mxGeometry relative="1" as="geometry">
            <Array as="points">
              <mxPoint x="880" y="200" />
              <mxPoint x="1320" y="200" />
            </Array>
          </mxGeometry>
        </mxCell>
        <mxCell id="_xkjYDFvgd3lGUrraLuJ-3" value="&lt;span style=&quot;border-color: var(--border-color);&quot;&gt;&lt;font face=&quot;Times New Roman&quot; style=&quot;border-color: var(--border-color); font-size: 60px;&quot;&gt;&lt;b style=&quot;&quot;&gt;DaDaMall&lt;/b&gt;&lt;/font&gt;&lt;/span&gt;" style="shape=process;whiteSpace=wrap;html=1;backgroundOutline=1;fontSize=20;fillColor=#dae8fc;strokeColor=#6c8ebf;gradientColor=#00FFFF;" parent="1" vertex="1">
          <mxGeometry x="640" y="40" width="480" height="120" as="geometry" />
        </mxCell>
        <mxCell id="_xkjYDFvgd3lGUrraLuJ-5" value="상품수정" style="whiteSpace=wrap;html=1;rounded=1;shadow=1;strokeWidth=1;fontSize=20;align=center;fillColor=#ffff88;strokeColor=#36393d;fillStyle=auto;fontStyle=1" parent="1" vertex="1">
          <mxGeometry x="380" y="640" width="180" height="80" as="geometry" />
        </mxCell>
        <mxCell id="_xkjYDFvgd3lGUrraLuJ-6" value="&lt;font style=&quot;font-size: 20px;&quot;&gt;상품등록&lt;/font&gt;" style="whiteSpace=wrap;html=1;rounded=1;shadow=1;strokeWidth=1;fontSize=20;align=center;fillColor=#ffff88;strokeColor=#36393d;fillStyle=auto;fontStyle=1" parent="1" vertex="1">
          <mxGeometry x="320" y="400" width="240" height="80" as="geometry" />
        </mxCell>
        <mxCell id="_xkjYDFvgd3lGUrraLuJ-29" style="edgeStyle=orthogonalEdgeStyle;rounded=0;orthogonalLoop=1;jettySize=auto;html=1;entryX=1;entryY=0.5;entryDx=0;entryDy=0;fontFamily=Times New Roman;fontSize=20;fontStyle=1" parent="1" source="_xkjYDFvgd3lGUrraLuJ-7" target="_xkjYDFvgd3lGUrraLuJ-18" edge="1">
          <mxGeometry relative="1" as="geometry">
            <Array as="points">
              <mxPoint x="1020" y="560" />
              <mxPoint x="1020" y="680" />
            </Array>
          </mxGeometry>
        </mxCell>
        <mxCell id="_xkjYDFvgd3lGUrraLuJ-30" style="edgeStyle=orthogonalEdgeStyle;rounded=0;orthogonalLoop=1;jettySize=auto;html=1;entryX=1;entryY=0.5;entryDx=0;entryDy=0;fontFamily=Times New Roman;fontSize=20;fontStyle=1" parent="1" source="_xkjYDFvgd3lGUrraLuJ-7" target="303ed1de8c2c98b4-69" edge="1">
          <mxGeometry relative="1" as="geometry">
            <Array as="points">
              <mxPoint x="1020" y="560" />
              <mxPoint x="1020" y="800" />
            </Array>
          </mxGeometry>
        </mxCell>
        <mxCell id="_xkjYDFvgd3lGUrraLuJ-7" value="회원관리" style="whiteSpace=wrap;html=1;rounded=1;shadow=1;strokeWidth=1;fontSize=20;align=center;fillColor=#dae8fc;strokeColor=#6c8ebf;fontStyle=1" parent="1" vertex="1">
          <mxGeometry x="760" y="520" width="240" height="80" as="geometry" />
        </mxCell>
        <mxCell id="_xkjYDFvgd3lGUrraLuJ-8" value="회원가입 허가" style="whiteSpace=wrap;html=1;rounded=1;shadow=1;strokeWidth=1;fontSize=20;align=center;fillColor=#dae8fc;strokeColor=#6c8ebf;fontStyle=1" parent="1" vertex="1">
          <mxGeometry x="760" y="400" width="240" height="80" as="geometry" />
        </mxCell>
        <mxCell id="_xkjYDFvgd3lGUrraLuJ-9" value="배송정보 입력" style="whiteSpace=wrap;html=1;rounded=1;shadow=1;strokeWidth=1;fontSize=20;align=center;fillColor=#ffff88;strokeColor=#36393d;fillStyle=auto;fontStyle=1" parent="1" vertex="1">
          <mxGeometry x="320" y="1120" width="240" height="80" as="geometry" />
        </mxCell>
        <mxCell id="_xkjYDFvgd3lGUrraLuJ-10" value="본인정보 삭제" style="whiteSpace=wrap;html=1;rounded=1;shadow=1;strokeWidth=1;fontSize=20;align=center;fillColor=#d5e8d4;strokeColor=#82b366;fontStyle=1" parent="1" vertex="1">
          <mxGeometry x="1260" y="1000" width="180" height="80" as="geometry" />
        </mxCell>
        <mxCell id="_xkjYDFvgd3lGUrraLuJ-33" style="edgeStyle=orthogonalEdgeStyle;rounded=0;orthogonalLoop=1;jettySize=auto;html=1;entryX=1;entryY=0.5;entryDx=0;entryDy=0;fontFamily=Times New Roman;fontSize=20;fontStyle=1" parent="1" source="_xkjYDFvgd3lGUrraLuJ-11" target="303ed1de8c2c98b4-15" edge="1">
          <mxGeometry relative="1" as="geometry">
            <Array as="points">
              <mxPoint x="1460" y="800" />
              <mxPoint x="1460" y="920" />
            </Array>
          </mxGeometry>
        </mxCell>
        <mxCell id="_xkjYDFvgd3lGUrraLuJ-34" style="edgeStyle=orthogonalEdgeStyle;rounded=0;orthogonalLoop=1;jettySize=auto;html=1;entryX=1;entryY=0.5;entryDx=0;entryDy=0;fontFamily=Times New Roman;fontSize=20;fontStyle=1" parent="1" source="_xkjYDFvgd3lGUrraLuJ-11" target="_xkjYDFvgd3lGUrraLuJ-10" edge="1">
          <mxGeometry relative="1" as="geometry">
            <Array as="points">
              <mxPoint x="1460" y="800" />
              <mxPoint x="1460" y="1040" />
            </Array>
          </mxGeometry>
        </mxCell>
        <mxCell id="_xkjYDFvgd3lGUrraLuJ-11" value="&lt;font style=&quot;font-size: 20px;&quot;&gt;본인정보 보기&lt;/font&gt;" style="whiteSpace=wrap;html=1;rounded=1;shadow=1;strokeWidth=1;fontSize=20;align=center;fillColor=#d5e8d4;strokeColor=#82b366;fontStyle=1" parent="1" vertex="1">
          <mxGeometry x="1200" y="760" width="240" height="80" as="geometry" />
        </mxCell>
        <mxCell id="_xkjYDFvgd3lGUrraLuJ-12" value="장바구니" style="whiteSpace=wrap;html=1;rounded=1;shadow=1;strokeWidth=1;fontSize=20;align=center;fillColor=#ffff88;strokeColor=#36393d;fillStyle=auto;fontStyle=1" parent="1" vertex="1">
          <mxGeometry x="320" y="1000" width="240" height="80" as="geometry" />
        </mxCell>
        <mxCell id="_xkjYDFvgd3lGUrraLuJ-13" value="상품구매" style="whiteSpace=wrap;html=1;rounded=1;shadow=1;strokeWidth=1;fontSize=20;align=center;fillColor=#ffff88;strokeColor=#36393d;fillStyle=auto;fontStyle=1" parent="1" vertex="1">
          <mxGeometry x="380" y="880" width="180" height="80" as="geometry" />
        </mxCell>
        <mxCell id="_xkjYDFvgd3lGUrraLuJ-36" style="edgeStyle=orthogonalEdgeStyle;rounded=0;orthogonalLoop=1;jettySize=auto;html=1;entryX=1;entryY=0.5;entryDx=0;entryDy=0;fontFamily=Times New Roman;fontSize=20;fontStyle=1" parent="1" source="_xkjYDFvgd3lGUrraLuJ-14" target="_xkjYDFvgd3lGUrraLuJ-15" edge="1">
          <mxGeometry relative="1" as="geometry">
            <Array as="points">
              <mxPoint x="1460" y="560" />
              <mxPoint x="1460" y="680" />
            </Array>
          </mxGeometry>
        </mxCell>
        <mxCell id="_xkjYDFvgd3lGUrraLuJ-14" value="로그인" style="whiteSpace=wrap;html=1;rounded=1;shadow=1;strokeWidth=1;fontSize=20;align=center;fillColor=#d5e8d4;strokeColor=#82b366;fontStyle=1" parent="1" vertex="1">
          <mxGeometry x="1200" y="520" width="240" height="80" as="geometry" />
        </mxCell>
        <mxCell id="_xkjYDFvgd3lGUrraLuJ-15" value="로그아웃" style="whiteSpace=wrap;html=1;rounded=1;shadow=1;strokeWidth=1;fontSize=20;align=center;fillColor=#d5e8d4;strokeColor=#82b366;fontStyle=1" parent="1" vertex="1">
          <mxGeometry x="1260" y="640" width="180" height="80" as="geometry" />
        </mxCell>
        <mxCell id="_xkjYDFvgd3lGUrraLuJ-16" value="회원가입" style="whiteSpace=wrap;html=1;rounded=1;shadow=1;strokeWidth=1;fontSize=20;align=center;fillColor=#d5e8d4;strokeColor=#82b366;fontStyle=1" parent="1" vertex="1">
          <mxGeometry x="1200" y="400" width="240" height="80" as="geometry" />
        </mxCell>
        <mxCell id="_xkjYDFvgd3lGUrraLuJ-17" value="상품 삭제" style="whiteSpace=wrap;html=1;rounded=1;shadow=1;strokeWidth=1;fontSize=20;align=center;fillColor=#ffff88;strokeColor=#36393d;fillStyle=auto;fontStyle=1" parent="1" vertex="1">
          <mxGeometry x="380" y="760" width="180" height="80" as="geometry" />
        </mxCell>
        <mxCell id="_xkjYDFvgd3lGUrraLuJ-18" value="회원정보 보기" style="whiteSpace=wrap;html=1;rounded=1;shadow=1;strokeWidth=1;fontSize=20;align=center;fillColor=#dae8fc;strokeColor=#6c8ebf;fontStyle=1" parent="1" vertex="1">
          <mxGeometry x="820" y="640" width="180" height="80" as="geometry" />
        </mxCell>
        <mxCell id="_xkjYDFvgd3lGUrraLuJ-31" style="edgeStyle=orthogonalEdgeStyle;rounded=0;orthogonalLoop=1;jettySize=auto;html=1;entryX=1;entryY=0.5;entryDx=0;entryDy=0;fontFamily=Times New Roman;fontSize=20;fontStyle=1" parent="1" source="_xkjYDFvgd3lGUrraLuJ-19" target="_xkjYDFvgd3lGUrraLuJ-5" edge="1">
          <mxGeometry relative="1" as="geometry">
            <Array as="points">
              <mxPoint x="580" y="560" />
              <mxPoint x="580" y="680" />
            </Array>
          </mxGeometry>
        </mxCell>
        <mxCell id="_xkjYDFvgd3lGUrraLuJ-32" style="edgeStyle=orthogonalEdgeStyle;rounded=0;orthogonalLoop=1;jettySize=auto;html=1;entryX=1;entryY=0.5;entryDx=0;entryDy=0;fontFamily=Times New Roman;fontSize=20;fontStyle=1" parent="1" source="_xkjYDFvgd3lGUrraLuJ-19" target="_xkjYDFvgd3lGUrraLuJ-17" edge="1">
          <mxGeometry relative="1" as="geometry">
            <Array as="points">
              <mxPoint x="580" y="560" />
              <mxPoint x="580" y="800" />
            </Array>
          </mxGeometry>
        </mxCell>
        <mxCell id="_xkjYDFvgd3lGUrraLuJ-35" style="edgeStyle=orthogonalEdgeStyle;rounded=0;orthogonalLoop=1;jettySize=auto;html=1;entryX=1;entryY=0.5;entryDx=0;entryDy=0;fontFamily=Times New Roman;fontSize=20;fontStyle=1" parent="1" source="_xkjYDFvgd3lGUrraLuJ-19" target="_xkjYDFvgd3lGUrraLuJ-13" edge="1">
          <mxGeometry relative="1" as="geometry">
            <Array as="points">
              <mxPoint x="580" y="560" />
              <mxPoint x="580" y="920" />
            </Array>
          </mxGeometry>
        </mxCell>
        <mxCell id="_xkjYDFvgd3lGUrraLuJ-19" value="&lt;font style=&quot;font-size: 20px;&quot;&gt;상품 상세보기&lt;/font&gt;" style="whiteSpace=wrap;html=1;rounded=1;shadow=1;strokeWidth=1;fontSize=20;align=center;fillColor=#ffff88;strokeColor=#36393d;fillStyle=auto;fontStyle=1" parent="1" vertex="1">
          <mxGeometry x="320" y="520" width="240" height="80" as="geometry" />
        </mxCell>
      </root>
    </mxGraphModel>
  </diagram>
</mxfile>
